<?xml version="1.0" encoding="utf-8"?>
<!-- Generator: Adobe Illustrator 24.3.0, SVG Export Plug-In . SVG Version: 6.00 Build 0)  -->
<svg version="1.1" id="Layer_1" xmlns="http://www.w3.org/2000/svg" xmlns:xlink="http://www.w3.org/1999/xlink" x="0px"
	y="0px" viewBox="0 0 600 426.87" style="enable-background:new 0 0 600 426.87;" xml:space="preserve">
	<style type="text/css">
		.st0 {
			fill: none;
			stroke: #000000;
			stroke-width: 0.25;
			stroke-miterlimit: 10;
		}
	</style>
	<rect x="217.93" y="100.72" class="st0" width="28.02" height="20.73" />
	<path class="st0" d="M151.76,315.6l12.15-16.4c-1.62-1.34-3.11-2.84-4.44-4.47l-17.14,12.11
	C145.09,310.14,148.26,313.08,151.76,315.6z" />
	<rect x="217.93" y="70.58" class="st0" width="28.02" height="27.43" />
	<rect x="186.7" y="100.72" class="st0" width="28.52" height="20.73" />
	<rect x="186.7" y="70.58" class="st0" width="28.52" height="27.43" />
	<rect x="279.94" y="100.72" class="st0" width="27.89" height="20.73" />
	<rect x="310.54" y="70.58" class="st0" width="28.9" height="27.43" />
	<rect x="310.54" y="100.72" class="st0" width="28.9" height="20.73" />
	<path class="st0" d="M184,100.72h-2.23c-4.69,0-9.24,0.64-13.56,1.83l6.88,20.34c2.83-0.87,5.82-1.36,8.91-1.42L184,100.72
	L184,100.72z" />
	<rect x="279.94" y="70.58" class="st0" width="27.89" height="27.43" />
	<rect x="248.65" y="70.58" class="st0" width="28.58" height="27.43" />
	<rect x="130.33" y="183.65" class="st0" width="21.78" height="28" />
	<rect x="130.33" y="214.36" class="st0" width="21.78" height="29.16" />
	<path class="st0"
		d="M165.61,103.33c-4.45,1.48-8.64,3.54-12.46,6.11l12.73,17.99c2.06-1.46,4.28-2.68,6.65-3.64L165.61,103.33z" />
	<path class="st0" d="M130.33,273.87c0,0.21,0.01,0.42,0.02,0.63h21.77c0-0.1-0.01-0.2-0.01-0.29v-27.97h-21.78L130.33,273.87
	L130.33,273.87z" />
	<path class="st0"
		d="M157.85,292.57c-1.25-1.81-2.32-3.74-3.19-5.79l-20.58,6.31c1.69,4.17,3.9,8.08,6.57,11.63L157.85,292.57z" />
	<path class="st0"
		d="M153.71,284.25c-0.74-2.25-1.23-4.61-1.46-7.04h-21.8c0.3,4.64,1.22,9.12,2.67,13.35L153.71,284.25z" />
	<rect x="342.15" y="100.72" class="st0" width="28.96" height="20.73" />
	<path class="st0" d="M163.74,129.08L150.94,111c-3.49,2.62-6.64,5.69-9.36,9.1l17.96,13.21
	C160.81,131.78,162.22,130.36,163.74,129.08z" />
	<path class="st0" d="M130.33,180.95h21.78v-27.01c0-0.42,0.02-0.84,0.03-1.26h-21.81V180.95z" />
	<path class="st0" d="M133.84,133.52l21.01,7.41c0.85-1.92,1.87-3.75,3.06-5.46l-17.96-13.21
	C137.47,125.72,135.41,129.5,133.84,133.52z" />
	<path class="st0"
		d="M130.39,149.97h21.97c0.28-2.25,0.79-4.43,1.5-6.51l-20.94-7.39C131.47,140.48,130.59,145.14,130.39,149.97z" />
	<path class="st0" d="M454.34,87.19l-16.21,22.4c3.48,2.74,6.61,5.89,9.33,9.38l22.81-16.22C465.67,96.89,460.32,91.64,454.34,87.19z
	" />
	<rect x="342.15" y="70.58" class="st0" width="28.96" height="27.43" />
	<path class="st0" d="M434.07,316.08l-11.25-16.27c-1.82,1.42-3.79,2.66-5.89,3.67l5.94,18.51
	C426.86,320.48,430.62,318.49,434.07,316.08z" />
	<path class="st0"
		d="M416.02,124.24c2.04,0.91,3.97,2.02,5.76,3.31l12.59-17.39c-3.57-2.53-7.47-4.62-11.62-6.18L416.02,124.24z" />
	<path class="st0" d="M452.55,292.77l-19.51-6.5c-0.64,1.58-1.39,3.1-2.26,4.55l16.27,12.23
	C449.25,299.87,451.1,296.42,452.55,292.77z" />
	<path class="st0" d="M445.45,305.24l-16.17-12.15c-1.29,1.8-2.76,3.47-4.39,4.97l11.36,16.42
	C439.69,311.79,442.78,308.69,445.45,305.24z" />
	<path class="st0" d="M436.54,111.78l-12.62,17.44c1.36,1.16,2.62,2.43,3.78,3.79l17.56-12.48
	C442.71,117.28,439.78,114.34,436.54,111.78z" />
	<path class="st0"
		d="M429.36,135.16c1.31,1.84,2.44,3.82,3.35,5.91l20.29-6.69c-1.54-4.17-3.62-8.08-6.13-11.67L429.36,135.16z" />
	<path class="st0" d="M471.92,104.9l-22.85,16.25c2.67,3.8,4.87,7.96,6.5,12.39l27.11-8.93C479.97,117.53,476.34,110.91,471.92,104.9
	z" />
	<path class="st0"
		d="M456.44,136.1c1.37,4.41,2.18,9.06,2.37,13.87h29.27c-0.42-7.95-1.98-15.61-4.48-22.82L456.44,136.1z" />
	<path class="st0" d="M456.11,149.97c-0.19-4.51-0.96-8.88-2.24-13.02l-20.19,6.65c0.69,2.04,1.18,4.17,1.45,6.37L456.11,149.97
	L456.11,149.97z" />
	<path class="st0" d="M456.16,273.87v-1.07h-20.78v1.41c0,3.31-0.5,6.5-1.43,9.52l19.53,6.51
	C455.21,285.09,456.16,279.59,456.16,273.87z" />
	<path class="st0"
		d="M423.61,101.41c4.42,1.65,8.56,3.87,12.35,6.56l16.18-22.35c-6.09-4.25-12.77-7.71-19.89-10.23L423.61,101.41z" />
	<path class="st0" d="M404.79,98.01c5.66,0.01,11.13,0.89,16.26,2.52l8.64-26.01c-7.86-2.5-16.23-3.88-24.9-3.93L404.79,98.01
	L404.79,98.01z" />
	<path class="st0"
		d="M404.79,121.51c3.03,0.18,5.96,0.78,8.72,1.74l6.69-20.15c-4.87-1.54-10.04-2.37-15.41-2.38V121.51z" />
	<rect x="373.81" y="70.58" class="st0" width="28.27" height="27.43" />
	<rect x="373.81" y="100.72" class="st0" width="28.27" height="20.73" />
	<rect x="435.38" y="183.65" class="st0" width="20.78" height="27.66" />
	<rect x="435.38" y="214.02" class="st0" width="20.78" height="26.61" />
	<rect x="435.38" y="243.34" class="st0" width="20.78" height="26.76" />
	<path class="st0" d="M456.16,152.68h-20.81c0.02,0.42,0.03,0.83,0.03,1.26v27.01h20.78V152.68z" />
	<rect x="248.65" y="100.72" class="st0" width="28.58" height="20.73" />
	<path class="st0" d="M404.79,325.3c5.41-0.01,10.62-0.86,15.52-2.42l-5.88-18.33c-3.03,1.16-6.27,1.88-9.64,2.08L404.79,325.3
	L404.79,325.3z" />
	<rect x="373.81" y="306.69" class="st0" width="28.27" height="18.61" />
	<path class="st0" d="M481.98,302.58l-26.86-8.95c-1.55,3.93-3.53,7.63-5.91,11.05l22.12,16.63
	C475.65,315.59,479.23,309.3,481.98,302.58z" />
	<path class="st0" d="M404.79,354.82c17.09-0.1,32.99-5.33,46.23-14.24l-15.41-22.28c-3.67,2.56-7.66,4.68-11.91,6.27l8.11,25.62
	l-2.3,0.76l-8.37-25.49c-5.16,1.65-10.65,2.54-16.35,2.55V354.82z" />
	<rect x="373.81" y="328.01" class="st0" width="28.27" height="26.82" />
	<path class="st0" d="M469.66,323.44l-22.05-16.58c-2.84,3.68-6.14,6.99-9.82,9.84l15.44,22.32
	C459.38,334.58,464.91,329.34,469.66,323.44z" />
	<rect x="279.38" y="306.69" class="st0" width="28.98" height="18.61" />
	<rect x="311.06" y="306.69" class="st0" width="28.06" height="18.61" />
	<rect x="341.83" y="306.69" class="st0" width="29.27" height="18.61" />
	<rect x="341.83" y="328.01" class="st0" width="29.27" height="26.82" />
	<path class="st0" d="M488.2,154.5c0-0.61-0.03-1.21-0.05-1.82h-29.29v28.27h29.34V154.5z" />
	<path class="st0"
		d="M488.16,272.8h-29.29v1.07c0,6.02-1,11.8-2.82,17.22l26.93,8.98C486.14,291.54,487.94,282.36,488.16,272.8z" />
	<rect x="458.87" y="243.34" class="st0" width="29.34" height="26.76" />
	<rect x="458.87" y="214.02" class="st0" width="29.34" height="26.61" />
	<rect x="458.87" y="183.65" class="st0" width="29.34" height="27.66" />
	<rect x="248.65" y="306.69" class="st0" width="28.02" height="18.61" />
	<path class="st0" d="M101.62,154.5v26.45h26.01v-28.27h-25.96C101.65,153.28,101.62,153.89,101.62,154.5z" />
	<rect x="101.62" y="183.65" class="st0" width="26.01" height="28" />
	<rect x="101.62" y="214.36" class="st0" width="26.01" height="29.16" />
	<path class="st0"
		d="M101.74,149.97h25.94c0.21-5.15,1.14-10.11,2.69-14.8l-24-8.46C103.78,134.05,102.18,141.86,101.74,149.97z" />
	<path class="st0"
		d="M101.62,270.91c0,1.2,0.04,2.4,0.09,3.59h25.93c0-0.21-0.02-0.42-0.02-0.63v-27.64h-26.01v24.68H101.62z" />
	<path class="st0" d="M118.98,103.47l20.43,15.03c2.9-3.64,6.25-6.92,9.98-9.71l-14.8-20.91C128.72,92.37,123.47,97.62,118.98,103.47
	z" />
	<path class="st0" d="M107.31,124.17l23.97,8.45c1.66-4.28,3.85-8.29,6.48-11.96l-20.4-15.01
	C113.28,111.34,109.89,117.55,107.31,124.17z" />
	<path class="st0"
		d="M184,70.62c-8.77,0.16-17.2,1.67-25.12,4.33l8.46,25.03c4.6-1.27,9.43-1.97,14.43-1.97H184V70.62z" />
	<path class="st0" d="M136.76,86.27l14.82,20.95c4.03-2.72,8.46-4.9,13.16-6.46l-8.43-24.93C149.31,78.45,142.75,81.98,136.76,86.27z
	" />
	<path class="st0"
		d="M130.54,291.35c-1.53-4.48-2.5-9.22-2.8-14.14h-25.86c0.56,7.5,2.1,14.72,4.51,21.55L130.54,291.35z" />
	<path class="st0"
		d="M138.43,306.29c-2.83-3.78-5.17-7.95-6.95-12.39l-24.15,7.4c2.71,6.96,6.32,13.48,10.7,19.4L138.43,306.29z" />
	<rect x="217.93" y="328.01" class="st0" width="28.02" height="26.82" />
	<rect x="186.7" y="306.69" class="st0" width="28.52" height="18.61" />
	<rect x="186.7" y="328.01" class="st0" width="28.52" height="26.82" />
	<rect x="217.93" y="306.69" class="st0" width="28.02" height="18.61" />
	<path class="st0"
		d="M184,328.01h-2.23c-5.08,0-9.99-0.72-14.66-2.03l-7.94,24.58c7.83,2.6,16.17,4.07,24.83,4.23V328.01z" />
	<path class="st0" d="M164.52,325.18c-4.31-1.45-8.39-3.44-12.14-5.87l-15.02,20.26c5.91,4.16,12.36,7.59,19.24,10.12L164.52,325.18z
	" />
	<path class="st0" d="M135.17,337.99l14.98-20.21c-3.73-2.69-7.1-5.84-10.04-9.37l-20.43,14.43
	C124.18,328.52,129.38,333.63,135.17,337.99z" />
	<path class="st0" d="M184,306.68c-3.52-0.06-6.9-0.69-10.07-1.8l-5.98,18.53c4.4,1.23,9.04,1.9,13.83,1.9H184V306.68z" />
	<path class="st0"
		d="M171.41,303.87c-1.88-0.84-3.67-1.86-5.34-3.02L154,317.13c3.52,2.27,7.33,4.11,11.36,5.47L171.41,303.87z" />
	<path class="st0" d="M409.9,278.49H175.56c-2.75,0-5-2.25-5-5V153.87c0-2.75,2.25-5,5-5H409.9c2.75,0,5,2.25,5,5v119.61
	C414.9,276.24,412.65,278.49,409.9,278.49z" />
	<path class="st0" d="M175.56,274.24c-0.4,0-0.75-0.35-0.75-0.75V153.87c0-0.4,0.35-0.75,0.75-0.75H409.9c0.4,0,0.75,0.35,0.75,0.75
	v119.61c0,0.41-0.34,0.76-0.75,0.76H175.56z" />
	<line class="st0" x1="205.98" y1="153.12" x2="205.98" y2="274.5" />
	<line class="st0" x1="238.03" y1="153.12" x2="238.03" y2="274.24" />
	<line class="st0" x1="293.38" y1="153.12" x2="293.38" y2="274.24" />
	<line class="st0" x1="347.93" y1="153.12" x2="347.93" y2="274.24" />
	<line class="st0" x1="380.36" y1="153.12" x2="380.36" y2="274.24" />
	<g>
		<path class="st0" d="M99.04,201.73v-44.72c0-52.31,40.2-89.34,89.34-89.34h213.17c44.3,0,78.39,27.89,87.13,68.43l10.53-2.48
		c-4.05-18.54-12.91-35.2-25.98-48.27c-18.38-18.38-43.83-28.51-71.67-28.51H188.37c-26.97,0-52.06,9.99-70.65,28.13
		C98.69,103.53,88.21,129.12,88.21,157v44.71h10.83V201.73z" />
		<path class="st0" d="M401.54,357.35H188.37c-53.33,0-89.34-40.2-89.34-89.34V256H88.21v12.02c0,57.1,43.06,100.16,100.16,100.16
		h213.17c49.18,0,86.92-30.25,97.3-74.8l-10.56-2.42C479.03,330.5,445.74,357.35,401.54,357.35z" />
		<rect x="88.21" y="199.78" class="st0" width="10.83" height="59.09" />
	</g>
	<path class="st0" d="M373.94,54.14h27.6c0.22,0,0.44,0.01,0.66,0.02V16.25c-0.22,0-0.44-0.01-0.66-0.01h-27.6V54.14z" />
	<rect x="504.41" y="213.83" class="st0" width="37.9" height="26.61" />
	<rect x="342.27" y="16.24" class="st0" width="28.96" height="37.9" />
	<path class="st0" d="M464.13,74c3.88,2.86,7.56,6.01,11,9.44c3.01,3.01,5.79,6.23,8.36,9.6l30.9-22.02
	c-3.8-5.05-7.95-9.86-12.46-14.37c-4.82-4.82-9.97-9.23-15.4-13.24L464.13,74z" />
	<rect x="248.78" y="16.24" class="st0" width="28.58" height="37.9" />
	<rect x="218.06" y="16.24" class="st0" width="28.02" height="37.9" />
	<rect x="217.29" y="370.89" class="st0" width="28.02" height="37.9" />
	<rect x="280.07" y="16.24" class="st0" width="27.89" height="37.9" />
	<path class="st0" d="M504.31,272.46c-0.43,11.62-2.51,22.57-6.06,32.66l35.94,11.98c4.87-14.03,7.61-29.05,8.05-44.63h-37.93V272.46
	z" />
	<rect x="248.01" y="370.89" class="st0" width="28.78" height="37.9" />
	<path class="st0" d="M533.29,319.63l-35.97-11.99c-3.26,8.55-7.58,16.45-12.85,23.55l30.22,22.82
	C522.48,343.55,528.73,331.99,533.29,319.63z" />
	<path class="st0"
		d="M498.8,121.98c2.96,8.83,4.76,18.2,5.36,27.9h37.98c-0.64-13.78-3.12-27.11-7.31-39.7L498.8,121.98z" />
	<rect x="504.41" y="183.72" class="st0" width="37.9" height="27.4" />
	<path class="st0"
		d="M485.1,95.18c5.35,7.4,9.63,15.56,12.8,24.27l36.07-11.81c-4.37-12.34-10.41-23.92-18-34.46L485.1,95.18z" />
	<path class="st0"
		d="M504.41,243.15v24.87c0,0.59-0.03,1.16-0.04,1.74h37.92c0.01-0.58,0.02-1.16,0.02-1.74v-24.87H504.41z" />
	<path class="st0" d="M542.24,152.58h-37.93c0.06,1.47,0.1,2.95,0.1,4.43V181h37.9v-23.99C542.31,155.53,542.28,154.06,542.24,152.58
	z" />
	<path class="st0" d="M445.89,402.21l-11.59-36.07c-9.18,2.78-19.03,4.38-29.39,4.67v37.94
	C419.14,408.44,432.91,406.22,445.89,402.21z" />
	<path class="st0" d="M460.59,353.84c-7.16,4.75-15.05,8.59-23.53,11.42l11.59,36.06c11.99-3.97,23.27-9.48,33.6-16.42L460.59,353.84
	z" />
	<path class="st0" d="M449.28,24.02l-11.88,36c8.79,3.03,17.02,7.21,24.53,12.43l22.41-30.61C473.62,34.27,461.83,28.29,449.28,24.02
	z" />
	<path class="st0"
		d="M404.91,54.22c10.34,0.3,20.32,1.97,29.74,4.92l11.89-36.04c-13.19-4.19-27.18-6.51-41.63-6.82V54.22z" />
	<rect x="310.67" y="16.24" class="st0" width="28.9" height="37.9" />
	<path class="st0" d="M106.3,93.82c2.9-3.8,6.07-7.4,9.52-10.78c3.1-3.02,6.39-5.8,9.82-8.38L103.73,43.7
	c-5.03,3.72-9.84,7.79-14.37,12.21c-4.93,4.81-9.47,9.98-13.61,15.46L106.3,93.82z" />
	<path class="st0" d="M64.37,108.76l28.1,9.97c3.1-8.11,7.2-15.74,12.25-22.74L74.15,73.53c-2.35,3.23-4.56,6.56-6.62,9.99l-3.4,5.67
	l7.02,4.44C68.58,98.51,66.31,103.56,64.37,108.76z" />
	<path class="st0" d="M140.27,400.8l11.64-36.08c-8.71-3.1-16.8-7.33-24.12-12.5l-22.65,30.4
	C115.89,390.33,127.7,396.44,140.27,400.8z" />
	<path class="st0"
		d="M91.25,303.24c-2.82-8.24-4.64-17.02-5.37-26.22H56.03c0.77,11.77,3.03,23.68,6.57,34.93L91.25,303.24z" />
	<path class="st0" d="M104.94,329.7c-5.26-7.25-9.56-15.28-12.78-23.93l-28.74,8.73c1.54,4.61,3.3,9.1,5.26,13.39l-6.79,3.81
	l3.24,5.88c2.65,4.81,5.6,9.44,8.8,13.88L104.94,329.7z" />
	<path class="st0"
		d="M184,370.78c-10.32-0.39-20.15-2.17-29.34-5.16l-11.64,36.09c13.01,4.22,26.78,6.59,40.98,7V370.78z" />
	<path class="st0" d="M125.61,350.65c-7.19-5.37-13.58-11.7-19.05-18.81l-31.05,21.8c3.86,5.15,8.09,10.02,12.65,14.59
	c4.65,4.65,9.6,8.92,14.81,12.81L125.61,350.65z" />
	<path class="st0" d="M402.2,370.87c-0.22,0-0.44,0.02-0.66,0.02h-27.6v37.9h27.6c0.22,0,0.44-0.01,0.66-0.01V370.87z" />
	<path class="st0" d="M482.83,333.31c-5.72,7.27-12.44,13.65-20.03,18.99l21.66,31.08c6.27-4.41,12.18-9.35,17.64-14.81
	c3.93-3.93,7.58-8.08,10.96-12.43L482.83,333.31z" />
	<path class="st0" d="M214.58,370.89h-26.21c-0.56,0-1.11-0.03-1.67-0.04v37.92c0.56,0.01,1.11,0.02,1.67,0.02h26.21L214.58,370.89
	L214.58,370.89z" />
	<path class="st0"
		d="M55.88,274.31h29.81c-0.11-2.08-0.19-4.18-0.19-6.3v-21.97H55.72v21.97C55.72,270.1,55.78,272.2,55.88,274.31z" />
	<path class="st0"
		d="M85.5,180.87v-23.85c0-1.53,0.05-3.06,0.11-4.57H55.8c-0.05,1.52-0.08,3.05-0.08,4.57v23.85H85.5z" />
	<path class="st0"
		d="M186.7,54.18c0.56-0.01,1.11-0.04,1.67-0.04h26.98v-37.9h-26.98c-0.56,0-1.11,0.01-1.67,0.02V54.18z" />
	<path class="st0"
		d="M142.57,23.58l11.88,36.01c9.38-3.13,19.31-4.94,29.54-5.34V16.32C169.67,16.73,155.74,19.2,142.57,23.58z" />
	<rect x="341.95" y="370.89" class="st0" width="29.27" height="37.9" />
	<rect x="311.25" y="370.89" class="st0" width="28" height="37.9" />
	<path class="st0"
		d="M55.92,149.73h29.84c0.64-9.91,2.57-19.48,5.74-28.5l-28.05-9.95C59.15,123.5,56.6,136.45,55.92,149.73z" />
	<rect x="55.72" y="183.57" class="st0" width="29.78" height="27.89" />
	<rect x="55.72" y="214.17" class="st0" width="29.78" height="29.16" />
	<path class="st0" d="M127.81,73.07c7.37-5.23,15.4-9.42,23.92-12.52l-11.89-36.04c-12.08,4.29-23.48,10.2-33.93,17.61L127.81,73.07z
	" />
	<rect x="279.5" y="370.89" class="st0" width="29.04" height="37.9" />
	<path class="st0" d="M487.95,133.02c0,0,2.45,10.27,2.64,16.86s0,120.22,0,120.22s0.19,13.1-2.65,22.33l10.58,2.36
	c0,0,3.6-11.45,3.6-25.02s-0.19-119.88-0.19-119.88s-1.22-14.09-3.65-19.85L487.95,133.02z" />
	<rect id="M29_Premium_Ticket" x="311.06" y="328.01" class="st0" width="28.06" height="26.82" />
	<rect id="M30_Premium_Ticket_1_" x="279.38" y="328.01" class="st0" width="28.98" height="26.82" />
	<rect id="M31_Premium_Ticket_1_" x="248.65" y="328.01" class="st0" width="28.02" height="26.82" />
</svg>